Coordinates
version=1
nRows=8
nColumns=33
inDegrees=yes

Units are S.I. units (second, meters, Newtons, ...)
Angles are in degrees.

endheader
time	ground_thorax_rot_x	ground_thorax_rot_y	ground_thorax_rot_z	ground_thorax_tx	ground_thorax_ty	ground_thorax_tz	clav_prot_r	clav_elev_r	scapula_abduction_r	scapula_elevation_r	scapula_upward_rot_r	scapula_winging_r	shoulder_elv_r	plane_of_elev_r	axial_rot_r	elbow_flexion_r	pro_sup_r	wrist_flex_r	wrist_dev_r	clav_prot_l	clav_elev_l	scapula_abduction_l	scapula_elevation_l	scapula_upward_rot_l	scapula_winging_l	shoulder_elv_l	plane_of_elev_l	axial_rot_l	elbow_flexion_l	pro_sup_l	wrist_flex_l	wrist_dev_l
      9.92000000	    -35.16108657	     -3.66669807	     15.62345289	   -100.47497916	    771.92622984	      5.36543134	      1.98223022	    -45.00000000	     45.00000000	    -45.00000000	     -7.15280887	  -1538.40499896	  -2637.80347245	    151.75454364	   -108.87232235	   1087.94302016	     23.37294707	     16.64724002	     12.43226290	     18.69401188	     38.58281970	    -43.37472184	    -41.46016729	    -36.93441294	   2238.36992358	  -4252.59915507	     26.40081337	    -27.72870190	    729.44120653	     17.26715105	      9.50459362	    -18.32466428
      9.93000000	    -34.96853692	     -5.25179591	     16.91529242	    -97.36207685	    770.81569203	      5.31120389	      3.20403612	    -45.00000000	     45.00000000	    -45.00000000	    -10.01652855	  -1538.08900792	  -2637.91190816	    151.40553276	   -109.71390503	   1087.92910794	     23.41211455	     16.69637740	     12.19053685	     18.49682820	     37.98609162	    -43.00014755	    -41.41778037	    -38.23476424	   2238.41418669	  -4252.78984664	     26.65993660	    -28.54163128	    729.07873974	     17.98502367	      9.33177551	    -18.48591015
      9.94000000	    -35.45778181	     -3.60594897	     14.88973700	    -94.36243979	    769.81691919	      5.27469787	      2.15324407	    -45.00000000	     45.00000000	    -45.00000000	     -6.79014434	  -1537.87026319	  -2637.96560419	    151.68600648	   -110.04796917	   1087.90186382	     23.89427088	     16.69540457	     12.31705296	     19.33432509	     38.26045109	    -44.32875534	    -40.46894392	    -35.90699267	   2238.56029190	  -4252.68926113	     25.99101292	    -28.37632105	    729.05941848	     19.32950409	      9.33631658	    -18.56657352
      9.95000000	    -35.61043143	     -3.47692666	     14.33356670	    -91.49257056	    768.93314712	      5.25992418	      1.95719672	    -45.00000000	     45.00000000	    -45.00000000	     -6.12392050	  -1537.55140253	  -2637.98027166	    151.74919078	   -110.31719224	   1087.91538319	     24.15455987	     16.70771532	     12.27308538	     19.47636106	     38.14199124	    -44.83205840	    -39.89461415	    -34.88121356	   2238.95306900	  -4253.02611843	     25.79720969	    -29.08318979	    728.86529441	     20.73077084	      9.10488248	    -18.52872635
      9.96000000	    -35.76549378	     -3.47011107	     13.89414156	    -88.75825176	    768.16282554	      5.26865135	      1.62204570	    -45.00000000	     45.00000000	    -45.00000000	     -5.62268127	  -1537.37068711	  -2638.13480337	    151.75127219	   -110.50975603	   1087.89551546	     24.29556152	     16.67307218	     12.11445680	     19.38760468	     38.16741587	    -45.00000000	    -39.41650660	    -33.82494148	   2239.13484971	  -4253.18379122	     25.63851921	    -29.78481704	    728.68486660	     22.05822003	      8.95956919	    -18.49659067
      9.97000000	    -35.77234317	     -4.49058697	     14.67510800	    -86.16329464	    767.50637382	      5.30294179	      2.64231288	    -45.00000000	     45.00000000	    -45.00000000	     -7.22590910	  -1537.60662360	  -2638.44996661	    151.29091264	   -110.73672039	   1087.89323109	     24.26677133	     16.62239956	     11.83838797	     18.32672241	     37.84992980	    -45.00000000	    -39.26504643	    -34.82954476	   2239.49381395	  -4253.38214004	     26.03921672	    -30.74663313	    728.52763633	     22.93471915	      8.72917553	    -18.36759964
      9.98000000	    -35.90503403	     -4.72867040	     14.46299255	    -83.71336269	    766.96505738	      5.36441545	      2.62661498	    -45.00000000	     45.00000000	    -45.00000000	     -7.20774058	  -1537.40936143	  -2638.60071536	    151.22855310	   -111.19033685	   1087.88467762	     24.21305182	     16.59084063	     11.77656002	     18.15739297	     37.90681798	    -45.00000000	    -38.93446834	    -34.31243416	   2239.39608820	  -4253.27994434	     25.82013833	    -31.13350516	    728.41733540	     23.77556057	      8.59695753	    -18.31216581
      9.99000000	    -36.20081172	     -3.73796567	     12.62939347	    -81.41272309	    766.53890781	      5.45401247	      1.22793870	    -45.00000000	     45.00000000	    -45.00000000	     -4.42499281	  -1536.69116524	  -2638.54157609	    151.72124763	   -111.41233440	   1087.88640657	     24.25397066	     16.63483679	     11.99060186	     18.84584843	     38.08186295	    -45.00000000	    -38.48071241	    -31.31153278	   2239.13029923	  -4253.45468290	     25.30591785	    -31.55878997	    728.11940481	     25.29040210	      8.52920281	    -18.35815809
